<svg xmlns="http://www.w3.org/2000/svg" xmlns:xlink="http://www.w3.org/1999/xlink" width="45" height="45" viewBox="0 0 45 45">
  <defs>
    <filter id="Oval_Copy_25" x="0" y="0" width="45" height="45" filterUnits="userSpaceOnUse">
      <feOffset dy="4" input="SourceAlpha"/>
      <feGaussianBlur stdDeviation="2.5" result="blur"/>
      <feFlood flood-color="#3d8bff" flood-opacity="0.694"/>
      <feComposite operator="in" in2="blur"/>
      <feComposite in="SourceGraphic"/>
    </filter>
  </defs>
  <g id="Pressure" transform="translate(7.5 -0.5)">
    <g transform="matrix(1, 0, 0, 1, -7.5, 0.5)" filter="url(#Oval_Copy_25)">
      <circle id="Oval_Copy_25-2" data-name="Oval Copy 25" cx="15" cy="15" r="15" transform="translate(7.5 3.5)" fill="#3d8bff"/>
    </g>
    <g id="graphic" transform="translate(8 12)">
      <path id="Path" d="M0,2.329A3.7,3.7,0,0,1,.816,4.651,3.7,3.7,0,0,1,0,6.973L2.329,9.3A6.949,6.949,0,0,0,4.1,4.651,6.948,6.948,0,0,0,2.329,0Z" transform="translate(9.902 2.343)" fill="#fff"/>
      <path id="Path-2" data-name="Path" d="M0,3.292a3.7,3.7,0,0,1,1.912.794L4.241,1.757A6.94,6.94,0,0,0,0,0Z" transform="translate(7.41 0.006)" fill="#fff"/>
      <path id="Path-3" data-name="Path" d="M9.322,9.89a3.718,3.718,0,1,1-2.732-6.6V0A7,7,0,0,0,2.05,11.938a7,7,0,0,0,9.6.281Z" transform="translate(0 0.006)" fill="#fff"/>
      <path id="Path-4" data-name="Path" d="M2.488,0A2.488,2.488,0,1,0,4.977,2.488,2.491,2.491,0,0,0,2.488,0Z" transform="translate(4.512 4.506)" fill="#fff"/>
    </g>
  </g>
</svg>
