<svg xmlns="http://www.w3.org/2000/svg" xmlns:xlink="http://www.w3.org/1999/xlink" width="45" height="45" viewBox="0 0 45 45">
  <defs>
    <filter id="Oval_Copy" x="0" y="0" width="45" height="45" filterUnits="userSpaceOnUse">
      <feOffset dy="4" input="SourceAlpha"/>
      <feGaussianBlur stdDeviation="2.5" result="blur"/>
      <feFlood flood-color="#3d8bff" flood-opacity="0.694"/>
      <feComposite operator="in" in2="blur"/>
      <feComposite in="SourceGraphic"/>
    </filter>
  </defs>
  <g id="Pulse" transform="translate(7.5 -0.5)">
    <g transform="matrix(1, 0, 0, 1, -7.5, 0.5)" filter="url(#Oval_Copy)">
      <circle id="Oval_Copy-2" data-name="Oval Copy" cx="15" cy="15" r="15" transform="translate(7.5 3.5)" fill="#3d8bff"/>
    </g>
    <g id="favorite-heart-button" transform="translate(9 14)">
      <path id="Path" d="M6,11l-.84-.837C2.04,7.413,0,5.56,0,3.288A3.247,3.247,0,0,1,3.3,0,3.611,3.611,0,0,1,6,1.255,3.611,3.611,0,0,1,8.7,0,3.247,3.247,0,0,1,12,3.288c0,2.272-2.04,4.125-5.16,6.875Z" fill="#fff"/>
    </g>
  </g>
</svg>
