<svg id="anesthesia_oval" xmlns="http://www.w3.org/2000/svg" width="30" height="30" viewBox="0 0 30 30">
  <circle id="Oval_Copy" data-name="Oval Copy" cx="15" cy="15" r="15" fill="#d4e6ff"/>
  <path id="Path" d="M11.754,2.826h0L14,.581,13.419,0,11.174,2.245,8.5,1.373,6.983,2.885l1.8,1.823L8.2,5.286,6.4,3.466l-.959.959,1.8,1.823-.584.578-1.8-1.82L3.9,5.966l1.8,1.823-.584.578-1.8-1.82L1.958,7.91l-.935-.935-.581.581L2.575,9.689,1.192,11.071h0L.581,10.46,0,11.041,2.959,14l.581-.581-.611-.611,1.383-1.383,2.133,2.133.581-.581-.935-.935L12.627,5.5Z" transform="translate(8 8)" fill="#3c94ff"/>
</svg>
