<svg id="Appointment" xmlns="http://www.w3.org/2000/svg" width="14.94" height="16" viewBox="0 0 14.94 16">
  <path id="Path" d="M5.8.117,5.7.088,5.6.064,5.557.053,5.523.046,5.462.035,5.4.025l-.018,0L5.323.015,5.254.008,5.187,0,5.12,0H4.951L4.914,0H4.909l-.039,0-.047,0h0l-.043,0L4.7.026h0L4.616.039,4.579.046,4.506.061,4.436.078,4.367.1l-.034.01-.065.02h0L4.237.136,4.206.147,4.175.157,4.116.18,4.058.2,4,.226,3.993.231h0L3.966.243,3.927.261l-.01,0L3.9.273,3.879.284,3.834.307,3.8.322,3.771.341,3.746.355,3.722.369l-.007,0L3.693.386,3.666.4,3.637.42,3.611.437,3.592.449l-.014.01L3.56.471,3.527.5H3.521L3.487.471,3.47.459,3.459.452,3.437.437,3.411.42,3.382.4,3.366.393,3.333.373,3.277.341,3.235.318,3.2.3h0L3.127.264,3.106.254,3.084.244,3.055.231,3.032.221,3.009.211,2.961.191,2.9.169,2.842.147Q2.78.125,2.714.106L2.646.087,2.577.069,2.5.053,2.431.039,2.356.027,2.279.017l-.036,0H2.225L2.2.009,2.138,0l-.03,0h-.18L1.861,0l-.034,0-.034,0L1.725.015l-.06.008-.018,0-.061.01h0L1.524.046,1.49.053,1.443.064l-.1.025-.1.029C.039.506-.454,2.33.507,3.743L.543,3.8l.021.032.014.021.05.08c.019.031.038.063.057.095s.037.064.054.1S.78,4.2.8,4.234l.051.1c.019.04.038.08.056.121L.925,4.5l.01.023.021.049.007.016c.014.034.027.067.04.1l.022.058.021.059c.016.044.03.089.044.133l.014.046.018.06.017.061c.006.02.011.04.016.061s.01.041.015.061.01.041.014.061l.011.051,0,.011c.008.041.016.082.023.124,0,.021.007.041.01.062s.007.042.009.062c.005.036.01.073.015.111.159,1.236.473,2.007.874,2.047h.044l.014,0,.015,0,.011,0,.01,0,.016-.005.005,0,.014-.007.017-.009.017-.011L2.308,7.7l.017-.013.017-.015.015-.014.027-.028.011-.013L2.406,7.6c.016-.02.032-.041.047-.064a1.988,1.988,0,0,0,.209-.448l.011-.032.013-.041C2.692,7,2.7,6.981,2.7,6.961s.013-.044.02-.067l.019-.067,0-.007.02-.076.01-.041c.007-.028.013-.055.02-.083s.018-.08.027-.12c.013-.06.024-.121.036-.182.005-.03.011-.059.016-.089.01-.059.019-.119.028-.179,0-.03.008-.06.013-.09.008-.06.015-.12.022-.179A1.728,1.728,0,0,1,3.2,4.96a.423.423,0,0,1,.031-.039L3.252,4.9l.013-.012.01-.009h0l0,0,.009-.007L3.3,4.864l.012-.008.015-.009.013-.007.013-.007.027-.012L3.4,4.816l.015,0,.022-.006.022,0h0l.019,0h0l.02,0h.023a.39.39,0,0,1,.32.165,1.724,1.724,0,0,1,.269.821c.007.059.014.119.022.179,0,.03.008.06.013.09.009.06.018.12.028.179.005.03.01.059.016.089.011.061.023.122.036.182.009.041.017.081.027.12s.013.056.02.083l.01.041.02.076,0,.007.019.067c.007.023.013.045.02.067s.012.038.018.057l.013.041.011.032A1.989,1.989,0,0,0,4.6,7.54c.012.017.023.034.035.049l.012.015.016.019h0l.032.035a.368.368,0,0,0,.031.028l.016.012.016.011.01.007H4.77l.007,0,.009,0,.02.01.01,0,.015.005.012,0,.02,0,.015,0h.043c.4-.04.715-.811.874-2.047,0-.037.009-.072.014-.107a4.412,4.412,0,0,1,.732-1.862C7.5,2.329,7.008.505,5.8.117Z" transform="translate(7.892 8.241)" fill="#3c94ff"/>
  <path id="Path-2" data-name="Path" d="M9.24,0V1.578H8.3V0H3.582V1.578H2.645V0H0V2.9H11.885V0Z" transform="translate(0 0.879)" fill="#3c94ff"/>
  <path id="Shape" d="M0,8.58V0H11.885V2.753a3.778,3.778,0,0,0-.469.184,3.7,3.7,0,0,0-.469-.184,3.478,3.478,0,0,0-1.061-.168,3.371,3.371,0,0,0-1.032.163A2.723,2.723,0,0,0,7.142,4.511a3.706,3.706,0,0,0,.385,3.131c.031.051.064.1.1.151a3.6,3.6,0,0,1,.193.318,3.472,3.472,0,0,1,.212.469Z" transform="translate(0 4.718)" fill="#3c94ff"/>
  <rect id="Rectangle" width="0.937" height="0.878" transform="translate(2.645)" fill="#3c94ff"/>
  <rect id="Rectangle-2" data-name="Rectangle" width="0.937" height="0.878" transform="translate(8.303)" fill="#3c94ff"/>
</svg>
