<svg id="Component_4_1" data-name="Component 4 – 1" xmlns="http://www.w3.org/2000/svg" xmlns:xlink="http://www.w3.org/1999/xlink" width="24" height="24" viewBox="0 0 24 24">
  <defs>
    <filter id="Path" x="1.5" y="4.684" width="20.902" height="18.53" filterUnits="userSpaceOnUse">
      <feOffset dy="2" />
      <feGaussianBlur stdDeviation="1.5" result="blur"/>
      <feFlood flood-color="#4386e8"/>
      <feComposite operator="in" in2="blur"/>
      <feComposite in="SourceGraphic"/>
    </filter>
  </defs>
  <circle id="Oval" cx="12" cy="12" r="12" fill="#5298ff"/>
  <g transform="matrix(1, 0, 0, 1, 0, 0)" filter="url(#Path)">
    <path id="Path-2" d="M11.62.653,11.276.3A.946.946,0,0,0,9.9.3L4.069,6.373,2,4.217a.946.946,0,0,0-1.373,0l-.343.357a1.046,1.046,0,0,0,0,1.43l3.1,3.23a.947.947,0,0,0,1.373,0L11.62,2.083A1.046,1.046,0,0,0,11.62.653Z" transform="translate(6 7.18)" fill="rgba(0,0,0,0.2)"/>
  </g>
</svg>
