<svg xmlns="http://www.w3.org/2000/svg" width="30" height="30" viewBox="0 0 30 30"><g transform="translate(-17 -16)"><g transform="translate(17 16)"><circle cx="15" cy="15" r="15" fill="#d4e6ff"/><g transform="translate(11 8)"><rect width="1.226" height="0.815" transform="translate(3.324 8.04)" fill="#3c94ff"/><path d="M6.95,2.89H5.658V2.279h.494V0h-4.4V2.279h.562V2.89H1a.953.953,0,0,0-1,.9V4.916a.921.921,0,0,0,.749.867v.007H.78A1.117,1.117,0,0,0,1,5.811H6.95c.028,0,.056,0,.084,0a1.057,1.057,0,0,0,.136-.019.925.925,0,0,0,.78-.873V3.785A.953.953,0,0,0,6.95,2.89Z" transform="translate(0.025)" fill="#3c94ff"/><path d="M7.184.025A1.045,1.045,0,0,0,7.034,0c-.028,0-.056,0-.084,0H1A1.1,1.1,0,0,0,.765.025H.749v0A.921.921,0,0,0,0,.9v1.13a.953.953,0,0,0,1,.9H6.95a.953.953,0,0,0,1-.9V.9A.923.923,0,0,0,7.184.025Z" transform="translate(0.025 11.079)" fill="#3c94ff"/><path d="M0,3.674V0H6.285V3.674Z" transform="translate(0.774 6.61)" fill="#3c94ff"/></g></g></g></svg>