<svg id="Mounthwash" xmlns="http://www.w3.org/2000/svg" width="7.949" height="14" viewBox="0 0 7.949 14">
  <rect id="Rectangle" width="1.226" height="0.815" transform="translate(3.299 8.04)" fill="#3c94ff"/>
  <path id="Path" d="M6.95,2.89H5.658V2.279h.494V0h-4.4V2.279h.562V2.89H1a.953.953,0,0,0-1,.9V4.916a.921.921,0,0,0,.749.867v.007H.78A1.117,1.117,0,0,0,1,5.811H6.95c.028,0,.056,0,.084,0a1.057,1.057,0,0,0,.136-.019.925.925,0,0,0,.78-.873V3.785A.953.953,0,0,0,6.95,2.89Z" fill="#3c94ff"/>
  <path id="Path-2" d="M7.184.025A1.045,1.045,0,0,0,7.034,0c-.028,0-.056,0-.084,0H1A1.1,1.1,0,0,0,.765.025H.749v0A.921.921,0,0,0,0,.9v1.13a.953.953,0,0,0,1,.9H6.95a.953.953,0,0,0,1-.9V.9A.923.923,0,0,0,7.184.025Z" transform="translate(0 11.079)" fill="#3c94ff"/>
  <path id="Shape" d="M0,3.674V0H6.285V3.674Z" transform="translate(0.749 6.61)" fill="#3c94ff"/>
</svg>
