<?xml version="1.0" encoding="UTF-8"?>
<svg xmlns="http://www.w3.org/2000/svg" xmlns:xlink="http://www.w3.org/1999/xlink" viewBox="0 0 144 144" width="144px" height="144px">
<g id="surface13027463">
<path style=" stroke:none;fill-rule:nonzero;fill:rgb(100%,100%,100%);fill-opacity:1;" d="M 54 12 C 30.875 12 12 30.875 12 54 C 12 77.125 30.875 96 54 96 C 64.488281 96 74.070312 92.089844 81.445312 85.6875 L 84 88.242188 L 84 96 L 120 132 L 132 120 L 96 84 L 88.242188 84 L 85.6875 81.445312 C 92.089844 74.070312 96 64.488281 96 54 C 96 30.875 77.125 12 54 12 Z M 54 24 C 70.640625 24 84 37.359375 84 54 C 84 70.640625 70.640625 84 54 84 C 37.359375 84 24 70.640625 24 54 C 24 37.359375 37.359375 24 54 24 Z M 54 24 "/>
</g>
</svg>
