<?xml version="1.0" encoding="UTF-8"?>
<svg xmlns="http://www.w3.org/2000/svg" xmlns:xlink="http://www.w3.org/1999/xlink" viewBox="0 0 480 480" width="480px" height="480px">
<g id="surface13030189">
<path style=" stroke:none;fill-rule:nonzero;fill:rgb(100%,100%,100%);fill-opacity:1;" d="M 180 40 C 102.917969 40 40 102.917969 40 180 C 40 257.082031 102.917969 320 180 320 C 214.960938 320 246.898438 306.960938 271.484375 285.625 L 280 294.140625 L 280 320 L 400 440 L 440 400 L 320 280 L 294.140625 280 L 285.625 271.484375 C 306.960938 246.898438 320 214.960938 320 180 C 320 102.917969 257.082031 40 180 40 Z M 180 80 C 235.464844 80 280 124.535156 280 180 C 280 235.464844 235.464844 280 180 280 C 124.535156 280 80 235.464844 80 180 C 80 124.535156 124.535156 80 180 80 Z M 180 80 "/>
</g>
</svg>
