<?xml version="1.0" encoding="UTF-8"?>
<svg xmlns="http://www.w3.org/2000/svg" xmlns:xlink="http://www.w3.org/1999/xlink" viewBox="0 0 240 240" width="240px" height="240px">
<g id="surface13027450">
<path style=" stroke:none;fill-rule:nonzero;fill:rgb(100%,100%,100%);fill-opacity:1;" d="M 90 20 C 51.457031 20 20 51.457031 20 90 C 20 128.542969 51.457031 160 90 160 C 107.480469 160 123.449219 153.480469 135.742188 142.8125 L 140 147.070312 L 140 160 L 200 220 L 220 200 L 160 140 L 147.070312 140 L 142.8125 135.742188 C 153.480469 123.449219 160 107.480469 160 90 C 160 51.457031 128.542969 20 90 20 Z M 90 40 C 117.734375 40 140 62.265625 140 90 C 140 117.734375 117.734375 140 90 140 C 62.265625 140 40 117.734375 40 90 C 40 62.265625 62.265625 40 90 40 Z M 90 40 "/>
</g>
</svg>
